<svg xmlns="http://www.w3.org/2000/svg" width="16" height="17" fill="none" viewBox="0 0 16 17">
    <path stroke="#4D515B" stroke-linecap="round" stroke-linejoin="round" d="M11.078 2.616c.159-.16.348-.285.555-.371.208-.086.43-.13.655-.13.225 0 .448.044.655.13.208.086.397.212.556.37.159.16.285.349.37.556.087.208.131.43.131.655 0 .225-.044.448-.13.655-.086.208-.212.397-.371.556l-8.17 8.17L2 14.114l.908-3.328 8.17-8.17z"/>
    <path stroke="#4D515B" stroke-linecap="round" d="M8 14.114h6.5"/>
</svg>
